<?xml version="1.0" standalone="no"?>
<!DOCTYPE svg PUBLIC "-//W3C//DTD SVG 1.1//EN" "http://www.w3.org/Graphics/SVG/1.1/DTD/svg11.dtd">
<svg width="16" height="11" viewBox="0 0 16 11" fill="none" xmlns="http://www.w3.org/2000/svg">
    <path d="M3.5185 4.34565L4.2309 4.26257L4.38063 3.56114C4.69679 2.08009 5.98401 1 7.5 1C9.01599 1 10.3032 2.08009 10.6194 3.56114L10.7691 4.26257L11.4815 4.34565C11.6938 4.37041 11.898 4.42542 12.0896 4.50656V3.44907C11.93 3.40457 11.7656 3.37201 11.5973 3.35238C11.1867 1.42857 9.50667 0 7.5 0C5.49333 0 3.81333 1.42857 3.40267 3.35238C1.76933 3.54286 0.5 4.95238 0.5 6.66667C0.5 8.50476 1.96533 10 3.76667 10H9.5V9H3.76667C2.53657 9 1.5 7.97162 1.5 6.66667C1.5 5.45287 2.39613 4.47654 3.5185 4.34565Z" fill="#97A3B7" />
    <path d="M13 10.5C14.3807 10.5 15.5 9.38071 15.5 8C15.5 6.61929 14.3807 5.5 13 5.5C11.6193 5.5 10.5 6.61929 10.5 8C10.5 9.38071 11.6193 10.5 13 10.5Z" fill="#e96f33" />
</svg>
  