<?xml version="1.0" standalone="no"?>
<!DOCTYPE svg PUBLIC "-//W3C//DTD SVG 1.1//EN" "http://www.w3.org/Graphics/SVG/1.1/DTD/svg11.dtd">
<svg xmlns="http://www.w3.org/2000/svg" width="16" height="16" viewBox="0 0 16 16" fill="none">
    <path d="M4.4809 6.26147L3.7685 6.34455C2.64613 6.47544 1.75 7.45177 1.75 8.66557C1.75 9.97052 2.78657 10.9989 4.01667 10.9989H7.25V11.9989H4.01667C2.21533 11.9989 0.75 10.5037 0.75 8.66557C0.75 6.95128 2.01933 5.54176 3.65267 5.35128C4.06333 3.42747 5.74333 1.9989 7.75 1.9989C9.75667 1.9989 11.4367 3.42747 11.8473 5.35128C12.0156 5.37091 12.18 5.40347 12.3396 5.44797V6.50546C12.148 6.42432 11.9438 6.36931 11.7315 6.34455L11.0191 6.26147L10.8694 5.56004C10.5532 4.07899 9.26599 2.9989 7.75 2.9989C6.23401 2.9989 4.94679 4.07899 4.63063 5.56004L4.4809 6.26147Z" fill="#000" fill-opacity="0.9" />
    <path fill-rule="evenodd" clip-rule="evenodd" d="M11.75 14C13.683 14 15.25 12.433 15.25 10.5C15.25 8.567 13.683 7 11.75 7C9.817 7 8.25 8.567 8.25 10.5C8.25 12.433 9.817 14 11.75 14ZM13.8997 9.7878L11.4249 12.2627L9.77513 10.6129L10.4822 9.90583L11.4249 10.8485L13.1926 9.08069L13.8997 9.7878Z" fill="#00A870" />
</svg>