<?xml version="1.0" standalone="no"?><!DOCTYPE svg PUBLIC "-//W3C//DTD SVG 1.1//EN" "http://www.w3.org/Graphics/SVG/1.1/DTD/svg11.dtd"><svg t="1668417494607" class="icon" viewBox="0 0 1024 1024" version="1.1" xmlns="http://www.w3.org/2000/svg" p-id="2042" xmlns:xlink="http://www.w3.org/1999/xlink" width="200" height="200"><path d="M917 410.8c-18.6 0-33.8-15.2-33.8-33.8v-84.4c0-1.6 0-3.4-0.2-5s-0.4-3.4-0.8-5l-1.2-4.8c-0.4-1.6-1-3.2-1.6-4.6-0.6-1.6-1.4-3-2.2-4.4s-1.6-2.8-2.6-4.2c-1-1.4-2-2.8-3-4-1-1.2-2.2-2.6-3.4-3.6-1.2-1.2-2.4-2.2-3.6-3.4-1.2-1-2.6-2-4-3s-2.8-1.8-4.2-2.6c-1.4-0.8-3-1.4-4.4-2.2-1.6-0.6-3-1.2-4.6-1.6l-4.8-1.2c-1.6-0.4-3.2-0.6-5-0.8-1.6-0.2-3.4-0.2-5-0.2H503.8c-11.6 0-23.2-1.8-34.2-5-11.2-3.4-21.6-8.4-31.2-14.8l-58.8-39.2c-4.2-2.8-8.6-4.8-13.4-6.4-4.8-1.4-9.6-2.2-14.6-2.2h-160c-1.6 0-3.4 0-5 0.2s-3.2 0.4-5 0.8l-4.8 1.2c-1.6 0.4-3.2 1-4.6 1.6-1.6 0.6-3 1.4-4.4 2.2-1.4 0.8-2.8 1.6-4.2 2.6-1.4 1-2.8 2-4 3-1.2 1-2.6 2.2-3.6 3.4-1.2 1.2-2.2 2.4-3.4 3.6-1 1.2-2 2.6-3 4s-1.8 2.8-2.6 4.2c-0.8 1.4-1.4 3-2.2 4.4-0.6 1.6-1.2 3-1.6 4.6l-1.2 4.8c-0.4 1.6-0.6 3.2-0.8 5-0.2 1.6-0.2 3.4-0.2 5v151.8c0 18.6-15.2 33.8-33.8 33.8s-33.8-15.2-33.8-33.8v-151.8c0-3.8 0.2-7.8 0.6-11.6 0.4-3.8 1-7.8 1.8-11.4 0.8-3.8 1.8-7.6 2.8-11.2 1.2-3.6 2.4-7.4 4-11 1.4-3.6 3.2-7 5-10.4 1.8-3.4 3.8-6.8 6-10s4.4-6.4 7-9.4c2.4-3 5-5.8 7.8-8.6s5.6-5.4 8.6-7.8c3-2.4 6.2-4.8 9.4-7s6.6-4.2 10-6c3.4-1.8 7-3.4 10.4-5 3.6-1.4 7.2-2.8 11-4 3.6-1.2 7.4-2 11.2-2.8 3.8-0.8 7.6-1.4 11.4-1.8 3.8-0.4 7.8-0.6 11.6-0.6h160c11.6 0 23.2 1.8 34.2 5 11.2 3.4 21.6 8.4 31.2 14.8L475.8 166c4.2 2.8 8.6 4.8 13.4 6.4 4.8 1.4 9.6 2.2 14.6 2.2h328.8c3.8 0 7.8 0.2 11.6 0.6 3.8 0.4 7.6 1 11.4 1.8 3.8 0.8 7.6 1.6 11.2 2.8 3.6 1.2 7.4 2.4 11 4 3.6 1.4 7 3.2 10.4 5 3.4 1.8 6.8 3.8 10 6s6.4 4.4 9.4 7c3 2.4 5.8 5 8.6 7.8s5.4 5.6 7.8 8.6c2.4 3 4.8 6 7 9.4 2.2 3.2 4.2 6.6 6 10 1.8 3.4 3.4 7 5 10.4 1.4 3.6 2.8 7.2 4 11 1.2 3.6 2 7.4 2.8 11.2 0.8 3.8 1.4 7.6 1.6 11.4 0.4 3.8 0.6 7.8 0.6 11.6v84.4c-0.2 18-15.4 33.2-34 33.2z" p-id="2043"></path><path d="M158.2 917c-3.8 0-7.8-0.2-11.6-0.6-3.8-0.4-7.6-1-11.4-1.8-3.8-0.8-7.6-1.8-11.2-2.8-3.6-1.2-7.4-2.4-11-4-3.6-1.4-7-3.2-10.4-5-3.4-1.8-6.8-3.8-10-6s-6.4-4.4-9.2-7c-3-2.4-5.8-5-8.6-7.8s-5.4-5.6-7.8-8.6c-2.4-3-4.8-6.2-6.8-9.4-2.2-3.2-4.2-6.6-6-10-1.8-3.4-3.4-7-5-10.4-1.4-3.6-2.8-7.2-3.8-11-1.2-3.6-2-7.4-2.8-11.2-0.8-3.8-1.4-7.6-1.6-11.4-0.4-3.2-0.6-6.6-0.6-9.8l-34-347.4v-0.6c-0.2-3.4-0.4-7-0.2-10.4 0-3.4 0.4-7 0.8-10.4 0.4-3.4 1-6.8 1.8-10.2 0.8-3.4 1.8-6.8 3-10s2.4-6.6 4-9.6c1.4-3.2 3.2-6.2 4.8-9.2 1.8-3 3.8-6 5.8-8.6 2-2.8 4.4-5.4 6.6-8 2.4-2.6 4.8-5 7.4-7.2 2.6-2.2 5.4-4.4 8.2-6.4 2.8-2 5.8-4 8.8-5.6 3-1.8 6.2-3.2 9.4-4.6 3.2-1.4 6.4-2.6 9.8-3.6 3.2-1 6.6-2 10-2.6 3.4-0.8 6.8-1.2 10.4-1.6 3.4-0.4 7-0.6 10.4-0.6h810.2c3.6 0 7 0.2 10.6 0.6 3.4 0.4 7 1 10.2 1.6 3.4 0.8 6.8 1.6 10 2.6s6.6 2.4 9.8 3.8c3.2 1.4 6.2 3 9.4 4.6 3 1.8 6 3.6 8.8 5.6 2.8 2 5.6 4.2 8.2 6.4 2.6 2.2 5 4.8 7.4 7.2 2.4 2.6 4.6 5.2 6.6 8s4 5.6 5.8 8.6c1.8 3 3.4 6 4.8 9.2 1.4 3.2 2.8 6.4 3.8 9.6 1.2 3.2 2.2 6.6 2.8 10 0.8 3.4 1.4 6.8 1.8 10.2 0.4 3.4 0.6 6.8 0.8 10.4 0 3.6 0 7-0.2 10.4v0.6l-34 347.4c0 3.2-0.2 6.6-0.6 9.8-0.4 3.8-1 7.6-1.6 11.4-0.8 3.8-1.6 7.6-2.8 11.2-1.2 3.6-2.4 7.4-4 11-1.4 3.6-3.2 7-5 10.4-1.8 3.4-3.8 6.8-6 10s-4.4 6.4-6.8 9.4c-2.4 3-5 5.8-7.8 8.6-2.6 2.6-5.6 5.4-8.6 7.8-3 2.4-6.2 4.8-9.4 7s-6.4 4.2-9.8 6c-3.4 1.8-7 3.4-10.4 5-3.6 1.4-7.2 2.8-11 4-3.6 1.2-7.4 2-11.2 2.8-3.8 0.8-7.6 1.4-11.4 1.8s-7.8 0.6-11.6 0.6h-708z m-84.8-470l34.2 348.6c0.2 1 0.2 2.2 0.2 3.2 0 1.6 0 3.4 0.2 5s0.4 3.2 0.8 5l1.2 4.8c0.4 1.6 1 3.2 1.6 4.6 0.6 1.6 1.4 3 2.2 4.4 0.8 1.4 1.6 2.8 2.6 4.2 1 1.4 2 2.8 3 4 1 1.2 2.2 2.6 3.4 3.6 1.2 1.2 2.4 2.2 3.6 3.4 1.2 1 2.6 2 4 3s2.8 1.8 4.2 2.6c1.4 0.8 3 1.4 4.4 2.2 1.6 0.6 3 1.2 4.6 1.6l4.8 1.2c1.6 0.4 3.2 0.6 5 0.8 1.6 0.2 3.4 0.2 5 0.2H866c1.6 0 3.2 0 4.8-0.2 1.6-0.2 3.2-0.4 5-0.8l4.8-1.2c1.6-0.4 3.2-1 4.6-1.6 1.6-0.6 3-1.4 4.4-2.2 1.4-0.8 2.8-1.6 4.2-2.6 1.4-1 2.8-2 4-3 1.2-1 2.6-2.2 3.6-3.4 1.2-1.2 2.4-2.4 3.4-3.8 1-1.2 2-2.6 3-4s1.8-2.8 2.6-4.2c0.8-1.4 1.4-3 2.2-4.4 0.6-1.6 1.2-3 1.6-4.6l1.2-4.8c0.4-1.6 0.6-3.2 0.8-5 0.2-1.6 0.2-3.4 0.2-5 0-1 0-2.2 0.2-3.2l34.2-348.6c0-1 0.2-2.2 0-3.2 0-1.2-0.2-2.4-0.2-3.4-0.2-1.2-0.4-2.4-0.6-3.4-0.2-1.2-0.6-2.2-1-3.4-0.4-1-0.8-2.2-1.2-3.2-0.4-1-1-2-1.6-3-0.6-1-1.2-2-2-2.8-0.6-1-1.4-1.8-2.2-2.6l-2.4-2.4c-0.8-0.8-1.8-1.6-2.8-2.2-1-0.6-2-1.4-3-1.8-1-0.6-2-1-3-1.6-1-0.4-2.2-0.8-3.2-1.2-1-0.4-2.2-0.6-3.4-0.8-1.2-0.2-2.2-0.4-3.4-0.6-1.2-0.2-2.4-0.2-3.4-0.2H107c-1.2 0-2.4 0-3.4 0.2-1.2 0.2-2.4 0.2-3.4 0.6-1.2 0.2-2.2 0.6-3.4 0.8-1.2 0.4-2.2 0.8-3.2 1.2-1 0.4-2.2 1-3.2 1.6l-3 1.8c-1 0.6-1.8 1.4-2.8 2.2-0.8 0.8-1.8 1.6-2.4 2.4-0.8 0.8-1.6 1.8-2.2 2.6-0.6 1-1.4 2-2 3-0.6 1-1.2 2-1.6 3-0.4 1-1 2.2-1.4 3.2-0.4 1-0.8 2.2-1 3.4-0.2 1.2-0.4 2.2-0.6 3.4-0.2 1.2-0.2 2.4-0.2 3.4s0 2 0.2 3.2z m910.8 2.8z" p-id="2044"></path></svg>