<?xml version="1.0" standalone="no"?><!DOCTYPE svg PUBLIC "-//W3C//DTD SVG 1.1//EN" "http://www.w3.org/Graphics/SVG/1.1/DTD/svg11.dtd"><svg t="1668417420971" class="icon" viewBox="0 0 1090 1024" version="1.1" xmlns="http://www.w3.org/2000/svg" p-id="8984" xmlns:xlink="http://www.w3.org/1999/xlink" width="212.890625" height="200"><path d="M1017.714286 532q0-20-30.285715-20H365.714286q-22.857143 0-48.857143 12.285714T276 554.285714l-168 207.428572q-10.285714 13.714286-10.285714 22.857143 0 20 30.285714 20h621.714286q22.857143 0 49.142857-12.571429t40.571428-30.285714l168-207.428572q10.285714-12.571429 10.285715-22.285714zM365.714286 438.857143h438.857143V347.428571q0-22.857143-16-38.857142t-38.857143-16H420.571429q-22.857143 0-38.857143-16t-16-38.857143v-36.571429q0-22.857143-16-38.857143t-38.857143-16H128q-22.857143 0-38.857143 16t-16 38.857143v487.428572l146.285714-180q25.142857-30.285714 66.285715-50T365.714286 438.857143z m725.142857 93.142857q0 35.428571-26.285714 68.571429l-168.571429 207.428571q-24.571429 30.285714-66.285714 50t-80 19.714286H128q-52.571429 0-90.285714-37.714286t-37.714286-90.285714V201.142857q0-52.571429 37.714286-90.285714t90.285714-37.714286h182.857143q52.571429 0 90.285714 37.714286t37.714286 90.285714v18.285714h310.857143q52.571429 0 90.285714 37.714286t37.714286 90.285714v91.428572h109.714285q30.857143 0 56.571429 14t38.285714 40.285714q8.571429 18.285714 8.571429 38.857143z" p-id="8985"></path></svg>