<?xml version="1.0" standalone="no"?><!DOCTYPE svg PUBLIC "-//W3C//DTD SVG 1.1//EN" "http://www.w3.org/Graphics/SVG/1.1/DTD/svg11.dtd"><svg t="1668417411209" class="icon" viewBox="0 0 1024 1024" version="1.1" xmlns="http://www.w3.org/2000/svg" p-id="8845" xmlns:xlink="http://www.w3.org/1999/xlink" width="200" height="200"><path d="M914.285714 749.714286V347.428571q0-22.857143-16-38.857142t-38.857143-16H457.142857q-22.857143 0-38.857143-16t-16-38.857143v-36.571429q0-22.857143-16-38.857143t-38.857143-16H164.571429q-22.857143 0-38.857143 16t-16 38.857143v548.571429q0 22.857143 16 38.857143t38.857143 16h694.857142q22.857143 0 38.857143-16t16-38.857143z m73.142857-402.285715v402.285715q0 52.571429-37.714285 90.285714t-90.285715 37.714286H164.571429q-52.571429 0-90.285715-37.714286t-37.714285-90.285714V201.142857q0-52.571429 37.714285-90.285714t90.285715-37.714286h182.857142q52.571429 0 90.285715 37.714286t37.714285 90.285714v18.285714h384q52.571429 0 90.285715 37.714286t37.714285 90.285714z" p-id="8846"></path></svg>