<?xml version="1.0" standalone="no"?><!DOCTYPE svg PUBLIC "-//W3C//DTD SVG 1.1//EN" "http://www.w3.org/Graphics/SVG/1.1/DTD/svg11.dtd"><svg t="1668418141268" class="icon" viewBox="0 0 1024 1024" version="1.1" xmlns="http://www.w3.org/2000/svg" p-id="2189" xmlns:xlink="http://www.w3.org/1999/xlink" width="200" height="200"><path d="M953.6 467.84a48 48 0 0 0-39.36-19.84h-37.76V316.8a48 48 0 0 0-48-48h-384l-76.16-97.6a47.36 47.36 0 0 0-37.44-18.24H114.24a48 48 0 0 0-48 48v608a48.64 48.64 0 0 0 8.32 27.2 48 48 0 0 0 39.36 20.48H800a48 48 0 0 0 45.12-32L960 512a48.32 48.32 0 0 0-6.4-44.16zM307.52 248.96L384 346.56a48.32 48.32 0 0 0 37.76 18.24h358.72V448H228.48a48.32 48.32 0 0 0-45.12 32l-21.12 57.92v-288z" p-id="2190"></path></svg>