<?xml version="1.0" standalone="no"?>
<!DOCTYPE svg PUBLIC "-//W3C//DTD SVG 1.1//EN" "http://www.w3.org/Graphics/SVG/1.1/DTD/svg11.dtd">
<svg t="1668414594106" class="icon" viewBox="0 0 1024 1024" version="1.1" xmlns="http://www.w3.org/2000/svg" p-id="17000" xmlns:xlink="http://www.w3.org/1999/xlink" width="200" height="200">
    <path d="M493.272 687.116c-19.042 0-38.59-3.1-55.204-6.13l-3.518-0.642-136.886 136.84c-23.046 23.068-53.748 35.772-86.444 35.772-32.698 0-63.412-12.704-86.482-35.776-47.676-47.676-47.676-125.252 0-172.93l214.91-214.906a69.646 69.646 0 0 1 4.526-4.26 93.288 93.288 0 0 1 3.778-3.308c0.966-0.806 1.93-1.616 2.936-2.342l0.446-0.35c0.432-0.368 0.894-0.704 1.356-1.012l0.45-0.328a45.45 45.45 0 0 1 3.602-2.57l0.438-0.308c0.738-0.562 1.474-1.05 2.502-1.666a119.444 119.444 0 0 1 36.204-15.798 123.236 123.236 0 0 1 30.156-3.744c32.73 0 63.436 12.698 86.464 35.758 17.1 17.102 28.63 38.582 33.35 62.122l2.408 12.024 73.07-68.462-1.934-4.418c-10.486-23.968-25.262-45.58-43.92-64.24-29.614-29.61-66.912-49.562-107.984-57.716l-3.73-0.674a188.616 188.616 0 0 0-20.494-2.686 192.252 192.252 0 0 0-13.704-0.658 173.42 173.42 0 0 0-6.918 0c-4.376 0.092-9.068 0.234-13.532 0.65a162.58 162.58 0 0 0-6.862 0.628l-6.838 0.884c-2.24 0.326-4.478 0.698-6.708 1.078a209.876 209.876 0 0 0-33.11 8.7c-29.896 10.518-56.474 27.27-78.996 49.794l-214.84 214.84c-82.352 82.4-82.352 216.474 0.002 298.876 39.864 39.84 92.934 61.782 149.438 61.782 56.502 0 109.572-21.942 149.436-61.784l211.294-211.292-28.244 9.896c-16.052 5.622-32.544 8.356-50.418 8.356z m-142.282 183.386c-37.284 37.264-86.928 57.786-139.786 57.786-52.86 0-102.504-20.522-139.786-57.784-77.036-77.078-77.036-202.496-0.002-279.574l214.836-214.836c21.066-21.068 45.924-36.736 73.876-46.572a195.874 195.874 0 0 1 30.91-8.126c2.084-0.356 4.212-0.71 6.19-1l6.578-0.85c2.042-0.216 4.128-0.438 6.37-0.582 3.996-0.37 7.988-0.512 12.748-0.61a166.18 166.18 0 0 1 6.436 0.002c4.072 0.042 8.26 0.244 12.842 0.618 6.36 0.478 12.77 1.318 19.092 2.502l3.658 0.66c38.298 7.604 73.18 26.262 100.876 53.958 16.304 16.306 29.44 35.022 39.088 55.682l-48.54 45.48c-6.364-21.634-18.054-41.326-34.216-57.488-25.604-25.64-59.74-39.76-96.12-39.76-11.302 0-22.57 1.4-33.492 4.158-14.432 3.634-28 9.556-40.07 17.442-1.152 0.68-2.256 1.412-3.358 2.24-1.446 0.94-2.886 1.964-4.246 3.032-0.744 0.506-1.484 1.056-2.188 1.642-1.188 0.87-2.34 1.82-3.476 2.77a99.734 99.734 0 0 0-4.136 3.622 80.29 80.29 0 0 0-5.148 4.85L115.088 634.602c-53 53-53 139.234 0 192.232 25.648 25.646 59.788 39.772 96.132 39.772 36.346 0 70.474-14.126 96.096-39.772l131.83-131.784c16.426 2.922 35.356 5.714 54.126 5.714 10.378 0 20.338-0.852 30.036-2.58l-172.318 172.318z" fill="#4A555F" p-id="17001"></path>
    <path d="M554.568 387.354c-25.458-25.458-57.52-42.61-92.332-49.524l-3.92-0.71a159.648 159.648 0 0 0-17.452-2.278 165.334 165.334 0 0 0-11.886-0.566 138.126 138.126 0 0 0-5.72 0c-4.42 0.09-8.086 0.218-11.61 0.546l-0.66 0.052c-1.824 0.116-3.682 0.316-5.134 0.468l-6.322 0.818c-1.956 0.286-3.904 0.612-5.688 0.914a180.042 180.042 0 0 0-28.43 7.474c-25.688 9.038-48.532 23.44-67.898 42.808L82.682 602.186c-70.834 70.872-70.834 186.19-0.008 257.052 34.276 34.258 79.922 53.126 128.53 53.126 48.604 0 94.254-18.868 128.526-53.12l142.82-142.82c-13.178-0.636-26.08-2.336-37.972-4.286l-125.992 125.948c-28.634 28.66-66.762 44.444-107.364 44.444-40.596 0-78.736-15.782-107.394-44.436-59.206-59.208-59.206-155.546 0-214.754l214.6-214.594a97.708 97.708 0 0 1 5.926-5.612 122.59 122.59 0 0 1 4.642-4.056 93.9 93.9 0 0 1 3.876-3.1c0.82-0.668 1.678-1.312 2.588-1.95a76.88 76.88 0 0 1 4.538-3.24c1.256-0.922 2.544-1.78 3.906-2.604a148.806 148.806 0 0 1 44.74-19.454 152.812 152.812 0 0 1 37.398-4.646c40.638 0 78.776 15.78 107.376 44.42a151.632 151.632 0 0 1 29.256 41.03l22.65-21.22c-8.198-14.974-18.5-28.704-30.756-40.96z" fill="#DFDFDF" p-id="17002"></path>
    <path d="M857.058 84.906c-39.86-39.864-92.938-61.816-149.454-61.816-56.516 0-109.582 21.954-149.42 61.814l-218.182 218.18 28.364-10.008c23.482-8.284 48.098-12.484 73.17-12.484 13.112 0 26.312 1.172 39.24 3.488l3.508 0.628 136.826-136.874c23.06-23.058 53.772-35.758 86.482-35.758 32.716 0 63.434 12.7 86.494 35.758 47.688 47.688 47.688 125.284 0 172.974L579.252 535.64c-18.158 18.118-41.04 29.89-66.192 34.046-6.716 1.128-13.576 1.7-20.392 1.7-32.632 0-63.316-12.694-86.396-35.74a122.074 122.074 0 0 1-35.24-75.83l-1.216-14.212-76.51 73.246 1.554 4.202c10.554 28.5 26.868 53.908 48.478 75.518a210.496 210.496 0 0 0 100.258 56.098 213.252 213.252 0 0 0 49.098 5.73c56.558 0 109.66-21.956 149.524-61.824l214.836-214.836c82.392-82.39 82.392-216.444 0.004-298.832z m-9.65 289.18L632.572 588.922c-37.288 37.29-86.964 57.826-139.874 57.826a199.592 199.592 0 0 1-45.944-5.36 196.84 196.84 0 0 1-93.758-52.466c-19.154-19.152-33.854-41.49-43.738-66.446l50.036-47.902a135.74 135.74 0 0 0 37.33 70.728c25.66 25.622 59.77 39.734 96.044 39.734 7.572 0 15.194-0.636 22.636-1.886 27.958-4.62 53.404-17.706 73.596-37.852L803.736 330.46c53.01-53.012 53.01-139.266 0-192.276-25.636-25.638-59.782-39.756-96.144-39.756-36.356 0-70.496 14.118-96.134 39.756l-131.81 131.858c-29.968-4.896-60.78-3.942-89.998 2.7l178.188-178.184c37.262-37.282 86.9-57.816 139.768-57.816s102.52 20.532 139.804 57.816c77.064 77.066 77.064 202.462-0.002 279.528z" fill="#4A555F" p-id="17003"></path>
    <path d="M836.146 105.818c-34.276-34.278-79.926-53.154-128.542-53.154-48.614 0-94.25 18.876-128.51 53.154l-145.324 145.32a253.18 253.18 0 0 1 40.27 1.988l126.16-126.202c28.644-28.644 66.784-44.42 107.394-44.42 40.616 0 78.76 15.776 107.404 44.42 59.218 59.218 59.218 155.576 0 214.796L600.142 556.574c-22.55 22.5-50.992 37.122-82.184 42.274a152.99 152.99 0 0 1-25.29 2.108c-40.522 0-78.626-15.764-107.306-44.402a151.548 151.548 0 0 1-34.066-52.282l-23.048 22.064c8.862 19.032 20.936 36.25 36.022 51.336a180.908 180.908 0 0 0 86.144 48.216 183.624 183.624 0 0 0 42.282 4.932c48.658 0 94.334-18.88 128.614-53.162l214.836-214.836c34.256-34.256 53.122-79.892 53.122-128.504s-18.866-94.244-53.122-128.5z" fill="#DFDFDF" p-id="17004"></path>
    <path d="M814.038 620.142c-89.916 0-163.068 73.152-163.068 163.068s73.15 163.068 163.068 163.068c89.916 0 163.07-73.152 163.07-163.068s-73.154-163.068-163.07-163.068z m0 312.488c-82.39 0-149.418-67.03-149.418-149.42s67.028-149.42 149.418-149.42 149.42 67.03 149.42 149.42-67.03 149.42-149.42 149.42zM883.308 971.778l4.808 12.774a232.8 232.8 0 0 0 12.998-5.34l-5.562-12.462c-3.986 1.78-8.108 3.472-12.244 5.028z m24.14-10.786l6.326 12.094a218.252 218.252 0 0 0 12.26-6.924l-7.092-11.66a206.524 206.524 0 0 1-11.494 6.49z m42.942-30.284l9.318 9.974a196.114 196.114 0 0 0 9.972-10.01l-10.01-9.28a183.624 183.624 0 0 1-9.28 9.316zM806.4 987.276l0.688 13.632c4.34-0.218 8.644-0.53 12.912-0.932l-1.284-13.59a277.74 277.74 0 0 1-12.316 0.89z m25.532-2.458l1.95 13.51a278.94 278.94 0 0 0 13.794-2.346l-2.634-13.394c-4.298 0.844-8.708 1.596-13.11 2.23z m26.072-5.134l3.342 13.234a254.042 254.042 0 0 0 13.496-3.804l-4.066-13.03a241.124 241.124 0 0 1-12.772 3.6z m71.972-32.406l7.852 11.166a204.86 204.86 0 0 0 11.244-8.496l-8.598-10.598a194.906 194.906 0 0 1-10.498 7.928z m78.262-131.996l13.53 1.818c0.616-4.578 1.108-9.272 1.468-13.95l-13.61-1.046a233.48 233.48 0 0 1-1.388 13.178z m-39.986 96.152l10.654 8.53a196.274 196.274 0 0 0 8.438-11.356l-11.244-7.74a182.076 182.076 0 0 1-7.848 10.566z m55.642-136.268l-13.644 0.382a269.292 269.292 0 0 1 0.036 13.298l13.644 0.316c0.048-2.064 0.072-4.14 0.072-6.232a289.554 289.554 0 0 0-0.108-7.764z m-20.744 66.05l13.204 3.452a227.414 227.414 0 0 0 3.13-13.71l-13.396-2.624a211.364 211.364 0 0 1-2.938 12.882z m-8.334 24.992l12.628 5.18a210.044 210.044 0 0 0 4.906-13.218l-12.95-4.314a195.148 195.148 0 0 1-4.584 12.352z m-11.658 23.572l11.774 6.904a198.36 198.36 0 0 0 6.704-12.43l-12.236-6.05a186.406 186.406 0 0 1-6.242 11.576z" fill="#4A555F" p-id="17005"></path>
    <path d="M814.038 649.714c-73.608 0-133.494 59.886-133.494 133.496 0 73.61 59.886 133.496 133.494 133.496 73.61 0 133.496-59.886 133.496-133.496 0-73.61-59.886-133.496-133.496-133.496z" fill="#F58E6F" p-id="17006"></path>
    <path d="M807.216 696.994h13.65v172.434h-13.65z" fill="#4A555F" p-id="17007"></path>
    <path d="M727.82 776.388h172.436v13.65H727.82zM91.064 475.506l9.654 9.648 9.648-9.654-9.654-9.648-9.648 9.654z m19.298-19.31l9.654 9.648 9.648-9.654-9.654-9.648-9.648 9.654z m-38.594 38.616l9.654 9.648 9.648-9.654-9.654-9.648-9.648 9.654z m57.89-57.924l9.654 9.648 9.648-9.654-9.654-9.648-9.648 9.654z m106.136-106.194l-9.648 9.654 9.654 9.648 9.648-9.654-9.654-9.648zM52.47 514.12l9.654 9.648 9.648-9.654-9.654-9.648-9.648 9.654z m96.488-96.54l9.654 9.648 9.648-9.654-9.656-9.648-9.646 9.654z m57.89-57.924l9.654 9.65 9.65-9.654-9.654-9.65-9.65 9.654z m-19.296 19.308l9.654 9.648 9.648-9.654-9.654-9.648-9.648 9.654z m-19.298 19.308l9.654 9.65 9.65-9.654-9.654-9.65-9.65 9.654z" fill="#4A555F" p-id="17008"></path>
</svg>